<svg xmlns:xlink="http://www.w3.org/1999/xlink" width="786.36" xmlns="http://www.w3.org/2000/svg" height="557" id="screenshot-98da05fa-728b-80ec-8001-a13c62d83aee" viewBox="0 0 786.36 557" style="-webkit-print-color-adjust: exact;" fill="none" version="1.1"><g id="shape-98da05fa-728b-80ec-8001-a13c62d83aee" rx="0" ry="0"><g id="shape-f068b94e-8302-801e-8001-a139820794e0"><g id="fills-f068b94e-8302-801e-8001-a139820794e0"><path rx="0" ry="0" d="M731.352,378.69C723.415,408.545,708.733,437.263,688.691,461.166C678.656,473.09,667.255,483.812,654.649,492.581C642.057,501.353,628.263,508.162,613.739,512.205C599.227,516.271,584.011,517.503,568.909,515.71C561.359,514.818,553.841,513.191,546.451,510.891C542.756,509.743,539.095,508.425,535.468,506.957L532.645,505.789L529.925,504.62C528.089,503.815,526.264,502.99,524.464,502.125C510.037,495.263,496.584,486.619,485.415,475.817C474.257,465.057,465.509,452.031,460.869,437.534C456.189,423.079,455.829,407.202,460.051,392.269C464.212,377.326,472.836,363.451,484.545,352.641C496.228,341.779,510.948,334.025,526.808,330.143C542.681,326.207,559.599,326.121,576.036,329.162C592.505,332.189,608.501,338.25,623.499,346.229C638.512,354.225,652.58,364.117,665.699,375.155C653.348,363.267,639.909,352.379,625.22,343.246C610.543,334.129,594.555,326.763,577.515,322.429C565.355,319.325,552.625,317.858,539.876,318.405C541.251,317.893,541.981,316.382,541.509,314.985C541.241,314.197,540.644,313.622,539.928,313.338C541.241,306.157,535.804,291.186,535.804,291.186L563.273,311.603C562.441,312.303,562.076,313.465,562.443,314.558C562.931,315.983,564.475,316.746,565.899,316.263C567.327,315.779,568.089,314.234,567.608,312.811C567.124,311.382,565.577,310.619,564.153,311.099C564.036,311.139,563.935,311.197,563.832,311.247L541.277,285.443L580.517,291.477C580.344,292.014,580.331,292.605,580.528,293.181C581.011,294.603,582.556,295.367,583.98,294.885C585.404,294.399,586.168,292.853,585.687,291.43C585.205,290.003,583.653,289.239,582.229,289.723C581.584,289.943,581.084,290.387,580.763,290.935C570.643,287.481,540.077,276.406,541.115,268.894C555.111,255.691,570.061,237.762,575.021,231.697C575.724,232.266,576.689,232.478,577.612,232.166C579.037,231.682,579.797,230.137,579.315,228.713C578.831,227.287,577.284,226.522,575.856,227.003C574.436,227.489,573.668,229.035,574.155,230.461C574.275,230.826,574.472,231.145,574.713,231.413C566.212,239.005,532.844,267.771,518.128,265.406C516.751,261.717,515.237,256.915,513.591,250.706C518.719,247.505,523.672,244.311,528.707,241.339C534.427,237.945,540.231,234.803,546.193,232.054C558.103,226.541,570.705,222.65,583.684,220.975C596.66,219.265,609.937,219.77,622.944,222.167C635.964,224.553,648.704,228.774,660.935,234.202C673.091,239.569,684.493,246.725,694.155,255.871C703.831,264.983,711.661,276.081,717.047,288.349C722.459,300.61,725.487,313.946,726.335,327.423C726.763,334.167,726.651,340.958,725.948,347.695C725.593,351.065,725.089,354.423,724.377,357.738C723.624,361.034,722.823,364.374,721.213,367.379C722.94,364.434,723.88,361.109,724.767,357.829C725.611,354.527,726.251,351.171,726.737,347.797C727.716,341.041,728.097,334.195,727.935,327.354C727.609,313.683,725.075,299.967,720,287.117C714.955,274.267,707.271,262.379,697.519,252.45C687.788,242.49,676.119,234.51,663.645,228.407C651.253,222.333,638.173,217.417,624.535,214.37C610.911,211.314,596.713,210.207,582.645,211.515C568.571,212.782,554.728,216.486,541.755,221.903C535.263,224.602,528.965,227.709,522.864,231.025C518.656,233.297,514.547,235.683,510.501,238.021C510.351,237.35,510.196,236.663,510.044,235.97C513.197,233.675,516.315,231.463,519.396,229.362C532.068,220.694,544.149,214.001,556.555,209.873C568.939,205.709,581.928,203.999,595.899,204.563C609.829,205.114,624.521,207.909,639.312,212.174C646.715,214.305,654.145,216.802,661.575,219.581L664.293,220.615L666.703,221.566C668.352,222.247,669.992,222.941,671.604,223.675C674.829,225.135,677.985,226.703,681.037,228.398C693.263,235.143,703.949,243.781,712.552,254.234C721.161,264.674,727.671,276.959,731.853,290.469C736.053,303.971,737.937,318.627,737.74,333.574C737.536,348.526,735.3,363.759,731.352,378.69ZM781.048,276.977C776.22,257.431,767.592,238.249,755.311,221.486C743.075,204.683,727.344,190.527,710.145,179.735C705.843,177.019,701.448,174.513,696.996,172.181C694.767,171.014,692.52,169.902,690.265,168.822L686.78,167.206L683.565,165.774C675.128,162.073,666.48,158.603,657.564,155.482C639.756,149.265,620.795,144.321,600.513,142.315C590.392,141.325,579.955,141.107,569.435,141.897C558.919,142.673,548.337,144.479,538.105,147.254C527.876,150.014,518.021,153.725,508.781,157.977C499.607,162.198,491.029,166.934,482.965,171.787C477.524,168.934,473.351,166.497,470.159,164.41C471.124,149.534,506.48,123.329,515.772,116.686C515.98,116.981,516.249,117.242,516.577,117.442C517.864,118.226,519.541,117.822,520.323,116.537C521.108,115.253,520.704,113.575,519.42,112.791C518.132,112.007,516.457,112.413,515.669,113.695C515.165,114.525,515.163,115.514,515.564,116.323C508.557,119.831,487.784,130.485,471.833,141.242C464.273,140.601,460.179,108.347,459.029,97.718C459.635,97.527,460.18,97.135,460.535,96.554C461.32,95.269,460.913,93.591,459.628,92.806C458.344,92.022,456.668,92.427,455.883,93.713C455.1,94.995,455.505,96.674,456.789,97.459C457.308,97.773,457.885,97.887,458.449,97.838L455.719,137.449L435.496,109.777C435.569,109.686,435.648,109.598,435.707,109.497C436.493,108.213,436.085,106.534,434.803,105.75C433.516,104.967,431.843,105.371,431.057,106.655C430.271,107.941,430.679,109.618,431.964,110.402C432.947,111.002,434.161,110.899,435.028,110.241L448.919,141.526C448.919,141.526,435.508,132.933,428.211,132.641C428.087,131.879,427.659,131.169,426.949,130.738C425.665,129.954,423.991,130.358,423.204,131.642C422.42,132.927,422.825,134.603,424.107,135.387C425.393,136.174,427.071,135.767,427.856,134.482C427.908,134.397,427.94,134.305,427.985,134.214C433.885,138.019,448.325,149.555,448.325,149.555L448.327,149.557C442.809,153.718,433.881,157.794,421.407,155.401C420.611,164.818,441.187,179.045,457.163,188.39C450.804,192.645,444.671,196.786,438.663,200.654C425.048,209.483,412.031,216.997,398.877,222.65C385.736,228.327,372.452,232.191,358.655,234.349C351.761,235.433,344.748,236.087,337.624,236.362C334.061,236.493,330.475,236.535,326.86,236.479C325.06,236.453,323.229,236.402,321.436,236.327L318.633,236.203C317.819,236.159,317.135,236.095,316.369,236.026C306.817,235.221,296.171,232.693,285.509,229.069C286.649,227.613,287.659,226.079,288.556,224.489C288.583,224.493,288.607,224.503,288.629,224.51C292.468,225.557,296.276,226.334,300.075,226.962C307.671,228.206,315.243,228.851,322.8,229.101C337.908,229.566,352.961,228.421,367.696,225.701C382.421,222.965,396.84,218.598,410.341,212.314C423.836,206.039,436.379,197.779,447.039,187.622C435.584,196.874,422.584,203.95,408.952,208.982C395.305,214.021,381.033,217.083,366.665,218.554C352.297,220.006,337.799,219.907,323.576,218.294C316.472,217.479,309.425,216.282,302.615,214.583C299.441,213.787,296.331,212.863,293.347,211.805C297.451,194.107,293.22,175.374,293.22,175.374L287.687,159.893L244.643,129.454C240.677,122.103,230.317,109.873,225.952,104.841C226.212,104.63,226.44,104.373,226.616,104.061C227.351,102.746,226.88,101.085,225.569,100.351C224.253,99.618,222.593,100.086,221.86,101.398C221.124,102.711,221.593,104.37,222.908,105.106C223.396,105.377,223.928,105.483,224.447,105.442C226.763,112.285,235.943,126.603,235.943,126.603C235.943,126.603,213.841,103.729,205.785,93.898C206.163,93.662,206.493,93.342,206.724,92.929C207.457,91.617,206.991,89.954,205.677,89.221C204.364,88.486,202.704,88.955,201.968,90.267C201.236,91.579,201.704,93.241,203.016,93.975C203.379,94.177,203.764,94.279,204.149,94.306C207.661,105.666,231.208,129.213,231.208,129.213L187.16,110.782C187.349,109.678,186.847,108.527,185.816,107.953C184.501,107.217,182.84,107.686,182.107,108.997C181.373,110.309,181.843,111.969,183.155,112.703C184.435,113.419,186.041,112.987,186.801,111.746C196.445,119.863,229.175,136.697,229.175,136.697C223.856,138.755,209.524,141.659,203.708,142.797C203.476,142.265,203.088,141.797,202.545,141.493C201.232,140.758,199.572,141.226,198.836,142.539C198.103,143.851,198.569,145.513,199.884,146.247C201.2,146.978,202.859,146.513,203.595,145.201C203.829,144.778,203.928,144.319,203.925,143.866C216.845,146.049,237.087,141.914,237.115,141.913C243.161,145.895,256.303,155.235,266.296,167.022C266.057,182.907,255.991,198.419,234.476,201.717L235.325,204.531C223.477,197.138,212.139,189.07,201.531,180.755C197.719,177.726,193.996,174.665,190.384,171.591C206.807,167.803,236.437,171.675,252.333,187.197C240.439,162.005,199.219,151.031,185.791,148.045C185.791,148.045,193.352,138.87,208.487,131.289C208.487,131.289,190.233,126.359,167.575,137.201C167.575,137.201,173.849,126.373,186.437,120.163C171.085,118.391,159.577,122.389,151.135,128.166C151.013,127.937,150.873,127.709,150.748,127.486C152.904,123.994,154.448,119.958,155.047,115.094C155.047,115.094,118.163,72.887,79.932,49.683C82.367,49.933,84.803,50.206,87.236,50.523C100.773,52.322,114.236,55.137,127.367,59.094C140.469,63.086,153.344,68.149,165.088,75.245C170.932,78.809,176.489,82.918,181.215,87.891C185.9,92.843,189.772,98.837,191.175,105.691C190.304,98.747,186.831,92.294,182.404,86.854C177.944,81.378,172.549,76.723,166.833,72.61C155.333,64.414,142.543,58.231,129.425,53.121C116.274,48.043,102.685,44.101,88.838,41.183C76.627,38.633,64.169,36.853,51.544,36.249C33.193,29.831,25.203,32.95,25.201,52.686C19.489,64.177,14.924,76.105,11.18,88.201C7.019,101.725,3.88,115.522,1.942,129.486C0.053,143.435,-0.74,157.621,0.856,171.653C1.68,178.647,3.137,185.623,5.763,192.175C8.374,198.687,12.334,204.854,17.987,208.979C12.672,204.431,9.308,198.141,7.248,191.641C5.186,185.097,4.29,178.243,4.003,171.406C3.491,157.691,5.306,143.978,8.167,130.582C11.072,117.179,15.134,104.042,20.126,91.33C22.292,85.839,24.644,80.435,27.174,75.138C35.405,134.293,60.579,179.047,60.579,179.047C60.579,179.047,66.463,181.671,74.994,181.486C75.053,181.614,75.113,181.747,75.172,181.873C65.087,190.141,55.679,203.953,62.081,225.09C67.636,207.329,82.394,207.703,82.394,207.703C71.703,228.674,79.453,246.889,79.453,246.889C85.679,231.149,94.156,222.813,94.156,222.813C98.31,235.927,131.523,280.538,162.165,290.405C149.661,281.021,138.693,264.935,132.705,250.438C136.583,253.437,140.521,256.305,144.512,259.043C159.652,269.466,175.54,278.105,191.92,285.478C174.827,307.669,130.913,291.709,118.056,286.382C118.052,286.375,110.115,267.282,101.063,257.809C101.437,257.554,101.759,257.218,101.979,256.785C102.653,255.439,102.108,253.801,100.766,253.126C99.419,252.453,97.781,252.993,97.106,254.339C96.433,255.682,96.974,257.317,98.32,257.994C98.88,258.273,99.484,258.333,100.051,258.225C102.367,263.659,108.002,277.17,109.282,282.731C109.282,282.731,76.992,265.074,64.863,261.641C65.463,260.318,64.923,258.743,63.613,258.083C62.266,257.409,60.628,257.953,59.953,259.298C59.28,260.641,59.823,262.281,61.169,262.955C62.224,263.485,63.458,263.257,64.266,262.481L104.227,288.613C104.227,288.613,71.525,282.323,60.154,285.785C59.914,285.481,59.612,285.219,59.245,285.031C57.898,284.358,56.26,284.902,55.585,286.245C54.909,287.59,55.455,289.226,56.799,289.903C58.142,290.577,59.781,290.035,60.457,288.69C60.67,288.266,60.749,287.811,60.73,287.369C73.391,288.523,104.723,293.995,104.723,293.995C104.723,293.995,87.721,294.426,80.759,296.343C80.5,295.893,80.112,295.507,79.613,295.261C78.269,294.585,76.631,295.127,75.956,296.47C75.281,297.815,75.824,299.454,77.167,300.129C78.514,300.805,80.152,300.262,80.828,298.915C80.989,298.598,81.07,298.265,81.101,297.927C87.715,298.722,103.651,300.438,111.96,299.601L182.449,328.203C182.449,328.203,208.263,331.59,225.599,318.753C234.352,321.829,243.285,324.094,252.204,325.833C263.331,327.985,274.52,329.325,285.715,330.033C308.103,331.421,330.527,330.335,352.525,326.81C374.505,323.265,396.109,317.227,416.337,308.114C436.537,299.022,455.351,286.711,470.82,271.079C454.412,285.725,435.111,296.677,414.78,304.361C394.421,312.062,373.017,316.63,351.479,318.755C329.929,320.858,308.181,320.55,286.848,317.899C276.187,316.559,265.623,314.623,255.325,311.961C248.857,310.279,242.507,308.331,236.363,306.005C236.907,304.925,237.409,303.789,237.868,302.603C242.437,303.97,247.051,305.254,251.712,306.453C270.972,311.351,290.881,315.093,313.071,315.585L317.231,315.601L320.853,315.561C323.345,315.515,325.799,315.441,328.284,315.339C333.237,315.133,338.213,314.793,343.199,314.321C353.168,313.367,363.188,311.854,373.125,309.701C393.007,305.435,412.521,298.449,430.365,289.466C448.257,280.527,464.384,269.758,478.956,259.119C481.576,257.209,484.133,255.309,486.668,253.419C487.272,258.598,501.748,312.982,516.228,314.975C516.632,302.279,522.567,294.469,527.839,289.997C527.839,289.997,535.925,306.617,538.341,313.211C538.244,313.233,538.148,313.245,538.051,313.278C536.627,313.763,535.861,315.311,536.343,316.735C536.636,317.597,537.319,318.21,538.129,318.459C533.637,318.718,529.153,319.231,524.685,320.023C506.997,323.107,489.817,330.618,475.547,342.194C461.257,353.709,449.905,369.263,443.637,387.009C437.292,404.706,436.288,424.551,440.947,443.099C445.5,461.714,455.513,478.632,468.136,492.465C480.792,506.374,495.947,517.435,511.913,526.33C513.915,527.449,515.932,528.525,517.96,529.573L521.057,531.142L524.083,532.625C528.296,534.626,532.604,536.47,537.008,538.127C545.809,541.443,554.983,544.018,564.379,545.687C583.165,549.069,602.841,548.67,621.624,544.565C640.436,540.506,658.277,532.914,674.409,523.023C690.573,513.126,705.093,500.958,717.94,487.382C730.785,473.791,741.979,458.765,751.489,442.718C760.993,426.665,768.82,409.579,774.708,391.675C780.592,373.775,784.516,355.027,785.861,335.727C787.199,316.453,785.927,296.557,781.048,276.977Z" style="fill-rule: nonzero; stroke: none; fill: rgb(255, 255, 255); fill-opacity: 1;"/></g></g><g id="shape-f068b94e-8302-801e-8001-a13982083727"><g id="fills-f068b94e-8302-801e-8001-a13982083727"><path rx="0" ry="0" d="M64.99,116.973C67.848,112.294,66.372,106.182,61.692,103.325C57.01,100.466,50.897,101.945,48.04,106.625C45.183,111.303,46.661,117.417,51.34,120.274C56.021,123.131,62.133,121.654,64.99,116.973Z" style="fill-rule: nonzero; stroke: none; fill: rgb(33, 33, 33); fill-opacity: 1;"/></g></g><g id="shape-f068b94e-8302-801e-8001-a139820847fd"><g id="fills-f068b94e-8302-801e-8001-a139820847fd"><path rx="0" ry="0" d="M91.825,99.267C96.505,102.126,102.618,100.647,105.475,95.966C108.333,91.287,106.856,85.174,102.175,82.315C97.495,79.458,91.384,80.939,88.526,85.617C85.667,90.297,87.145,96.409,91.825,99.267Z" style="fill-rule: nonzero; stroke: none; fill: rgb(33, 33, 33); fill-opacity: 1;"/></g></g><g id="shape-f068b94e-8302-801e-8001-a139820d448d"><g id="fills-f068b94e-8302-801e-8001-a139820d448d"><path rx="0" ry="0" d="M103.71,201.753C103.898,195.724,104.606,189.715,105.773,183.803C106.353,180.845,107.05,177.909,107.856,175.006C108.253,173.552,108.682,172.109,109.132,170.664C109.348,169.962,109.568,169.291,109.79,168.604C109.98,168.446,110.161,168.271,110.356,168.12C110.739,168.168,111.109,168.241,111.458,168.348L111.733,167.206C112.184,167.666,112.633,168.125,113.079,168.592C116.93,174.408,121.196,179.942,125.773,185.197C135.628,196.499,146.748,206.619,158.554,215.833C150.699,217.314,126.669,215.269,103.975,212.608C103.695,208.998,103.594,205.372,103.71,201.753ZM82.468,209.871C82.924,208.894,83.369,207.908,83.841,206.939C87.335,199.768,91.232,192.793,95.564,186.126C97.66,182.908,99.865,179.768,102.215,176.763C101.78,178.822,101.38,180.886,101.049,182.963C100.067,189.158,99.561,195.432,99.599,201.704C99.614,205.196,99.826,208.686,100.196,212.159C93.983,211.408,87.951,210.625,82.468,209.871ZM709.841,472.624C729.836,448.631,744.986,420.72,754.483,390.974L784.417,395.255L756.171,385.456C760.895,369.231,763.888,352.46,764.684,335.513C765.483,317.87,763.941,299.982,759.183,282.833C754.483,265.689,746.593,249.33,735.706,235.199C724.853,221.036,711.108,209.219,695.869,200.165C694.179,199.158,692.468,198.197,690.744,197.253L727.081,185.05L684.678,194.088C680.546,192.039,676.341,190.15,672.082,188.436C663.982,185.139,655.759,182.102,647.405,179.425C630.71,174.081,613.429,170.127,595.773,168.835C578.149,167.511,560.148,169.12,543.126,174.221C542.998,174.259,542.867,174.306,542.74,174.345L562.229,114.336L530.197,178.726C518,183.609,506.467,189.992,495.542,197.008C495.277,197.183,495.009,197.36,494.745,197.533C485.162,193.478,476.009,188.522,467.35,182.828C462.472,179.659,457.746,176.25,453.241,172.58C449.165,169.182,445.077,165.698,441.618,161.756C444.928,161.018,448.145,159.503,450.607,157.086C453.454,154.316,455.159,150.676,456.219,147.021C457.271,143.333,457.764,139.538,457.899,135.757C458.04,131.973,457.923,128.196,457.581,124.442C457.603,128.208,457.544,131.976,457.183,135.709C456.799,139.43,456.237,143.148,455.085,146.67C453.946,150.177,452.172,153.506,449.534,155.961C446.931,158.456,443.462,159.86,439.864,160.371L438.397,160.582L439.331,161.728C443.123,166.376,447.535,170.282,452.129,173.958C456.734,177.619,461.546,181.005,466.508,184.146C475.329,189.626,484.668,194.313,494.451,197.723C480.112,206.996,466.552,217.171,452.722,226.774C438.569,236.652,424.017,245.876,408.534,253.243C393.084,260.646,376.748,266.14,359.929,269.429C358.225,269.767,356.511,270.064,354.795,270.36C357.785,260.503,368.023,226.684,369.936,219.837C369.936,219.837,352.93,259.396,343.618,271.961C332.049,273.316,320.358,273.789,308.724,273.458C291.664,272.79,274.71,269.124,258.276,264.086C249.157,261.266,240.179,257.96,231.358,254.268C232.181,253.863,232.975,253.417,233.755,252.954C235.586,251.834,237.319,250.589,238.981,249.262C242.31,246.615,245.381,243.681,248.254,240.565C253.982,234.33,258.924,227.359,262.75,219.787C266.558,212.225,269.232,203.991,269.909,195.488C270.615,187.004,269.19,178.333,265.731,170.564C262.304,162.767,257.039,155.921,250.938,150.094C244.82,144.262,237.896,139.344,230.613,135.136C216.012,126.707,200.173,120.764,184.115,115.926C200.094,121.008,215.826,127.2,230.217,135.807C237.381,140.123,244.217,145.038,250.205,150.854C256.178,156.659,261.282,163.437,264.561,171.075C267.87,178.687,269.175,187.113,268.418,195.362C267.673,203.619,265.092,211.664,261.323,219.065C257.551,226.475,252.672,233.323,247.026,239.432C244.199,242.479,241.171,245.354,237.922,247.925C236.297,249.208,234.614,250.414,232.86,251.478C231.665,252.193,230.421,252.859,229.159,253.35C226.874,252.373,224.597,251.378,222.334,250.352C215.598,236.186,212.653,183.609,209.585,175.907C209.585,175.907,209.884,231.572,214.407,246.619C213.07,245.97,211.736,245.325,210.408,244.662C194.967,236.963,180.087,228.097,166.041,218.053C152.024,207.986,138.786,196.738,127.232,183.904C121.972,178.056,117.115,171.843,112.807,165.263C124.005,163.155,135.092,161.187,146.366,160.112C158.564,158.913,170.874,158.553,183.096,159.596C195.295,160.649,207.459,163.114,218.771,167.916C230.062,172.672,240.39,179.998,248.127,189.634C240.633,179.809,230.429,172.164,219.138,167.079C207.832,161.949,195.583,159.144,183.274,157.775C170.94,156.417,158.485,156.474,146.128,157.381C136.865,158.028,127.614,159.293,118.465,160.722C118.81,160.533,119.15,160.343,119.498,160.155C123.242,158.152,127.068,156.257,130.921,154.42C138.631,150.752,146.466,147.316,154.385,144.089C162.309,140.872,170.318,137.849,178.465,135.244C182.54,133.952,186.651,132.762,190.821,131.83C192.908,131.371,195.011,130.973,197.134,130.737C199.246,130.526,201.422,130.368,203.506,130.923C201.442,130.293,199.243,130.374,197.112,130.509C194.968,130.672,192.84,130.996,190.73,131.383C186.505,132.17,182.337,133.217,178.203,134.369C169.934,136.693,161.793,139.44,153.728,142.385C145.666,145.339,137.681,148.507,129.785,151.922C125.961,153.584,122.158,155.304,118.391,157.141C120.448,155.057,122.567,153.013,124.756,151.034C130.244,146.093,136.03,141.444,142.059,137.133C148.095,132.833,154.375,128.843,161.008,125.532C164.33,123.886,167.744,122.413,171.281,121.294C174.81,120.19,178.499,119.411,182.238,119.584C178.514,119.182,174.734,119.735,171.098,120.634C167.45,121.545,163.901,122.824,160.439,124.284C153.515,127.227,146.914,130.876,140.535,134.853C134.162,138.847,128.008,143.195,122.099,147.897C119.145,150.251,116.254,152.696,113.463,155.297C112.038,156.65,110.615,158.017,109.249,159.488C105.683,153.326,102.648,146.852,100.523,140.055C97.941,131.848,96.681,123.154,97.418,114.538C98.115,105.926,100.808,97.49,105.069,89.936C100.647,97.396,97.752,105.807,96.862,114.487C95.932,123.169,97.017,132.003,99.458,140.378C100.052,142.407,100.731,144.405,101.473,146.38L3.417,0L97.617,151.72C78.658,137.889,49.154,125.222,36.093,124.901C52.424,128.408,82.56,139.965,106.801,162.399C106.609,162.647,106.419,162.904,106.231,163.159C106.09,163.189,105.94,163.211,105.798,163.248C103.68,163.758,101.731,164.518,99.867,165.381C96.151,167.115,92.767,169.267,89.539,171.585C83.112,176.252,77.323,181.621,72.044,187.43C66.79,193.252,62.022,199.543,58.26,206.427C56.398,209.87,54.792,213.475,53.753,217.256C52.732,221.018,52.259,225.045,53.2,228.836C52.488,224.998,53.195,221.083,54.408,217.456C55.641,213.813,57.423,210.381,59.446,207.114C63.524,200.593,68.557,194.709,74.018,189.328C79.5,183.966,85.46,179.07,91.848,174.988C95.043,172.963,98.361,171.134,101.764,169.787C102.529,169.487,103.309,169.21,104.092,168.966L104.035,169.177C104.018,169.237,104.003,169.297,103.989,169.355C102.535,171.026,101.199,172.766,99.905,174.516C97.506,177.804,95.316,181.208,93.239,184.675C89.098,191.615,85.433,198.806,82.184,206.171C81.678,207.317,81.205,208.475,80.72,209.628C73.736,208.648,67.737,207.733,63.581,207.012C63.581,207.012,70.3,208.309,80.487,210.179C77.956,216.273,75.712,222.48,73.86,228.805C71.62,236.521,69.928,244.415,69.235,252.406C70.231,244.445,72.216,236.66,74.733,229.079C76.854,222.738,79.374,216.549,82.177,210.489C87.538,211.472,93.75,212.595,100.389,213.755C101.423,222.2,103.496,230.501,106.713,238.348C111.422,249.925,118.515,260.413,127.103,269.31C135.69,278.242,145.695,285.644,156.316,291.824C145.931,285.251,136.255,277.508,128.109,268.378C119.956,259.28,113.417,248.756,109.27,237.358C106.553,229.959,104.87,222.223,104.122,214.409C127.441,218.456,154.844,222.814,169.003,223.628C181.663,232.638,194.972,240.723,208.774,247.88C214.549,250.858,220.413,253.675,226.36,256.314C224.776,263.859,223.293,271.343,220.52,278.431C217.62,286.041,213.246,293.188,207.011,298.404C200.822,303.666,192.979,306.726,184.927,307.904C176.845,309.113,168.562,308.672,160.45,307.45C144.173,304.955,128.453,299.465,113.252,293.074C98.027,286.652,83.237,279.199,68.765,271.186C83.077,279.475,97.702,287.281,112.871,293.962C128.047,300.543,143.763,306.245,160.216,308.961C168.427,310.247,176.855,310.724,185.169,309.517C193.442,308.341,201.631,305.201,208.119,299.726C214.656,294.301,219.213,286.878,222.214,279.089C225.022,271.942,226.479,264.399,227.998,257.019C236.159,260.588,244.474,263.816,252.928,266.664C272.108,283.821,295.304,333.075,299.162,341.441L266.871,270.942C280.434,274.707,294.342,277.398,308.534,278.096C326.051,278.761,343.623,277.702,360.898,274.468C376.197,271.624,391.173,266.98,405.453,260.778L467.795,277.035L414.466,256.617C429.082,249.511,442.883,240.9,456.182,231.799C469.559,222.668,482.476,213.024,495.88,204.309C494.014,210.55,492.672,216.961,491.977,223.464C491.203,230.871,491.138,238.378,491.934,245.808C492.734,253.233,494.289,260.577,496.509,267.709C498.693,274.855,501.698,281.728,505.089,288.361L505.792,289.737L506.552,288.399C508.816,284.43,511.731,280.75,515.594,278.404C519.408,275.976,524.083,275.186,528.641,275.583C533.231,275.954,537.716,277.315,542.062,278.944C546.414,280.609,550.612,282.674,554.751,284.847C550.763,282.405,546.631,280.179,542.326,278.303C538.024,276.429,533.494,274.947,528.753,274.426C524.051,273.886,518.999,274.566,514.798,277.083C511.052,279.314,508.186,282.648,505.921,286.238C502.883,280.075,500.314,273.697,498.206,267.172C495.957,260.163,494.359,252.944,493.495,245.63C492.641,238.319,492.402,230.919,492.993,223.558C493.483,217.042,494.544,210.565,496.066,204.185C497.025,203.565,497.973,202.938,498.935,202.328C513.399,193.102,528.655,185.168,544.953,180.427C561.214,175.612,578.335,174.125,595.282,175.444C599.583,175.771,603.86,176.269,608.128,176.906L602.134,177.263L645.041,217.749L614.045,177.888C624.614,179.806,635.062,182.568,645.326,185.887C653.484,188.529,661.537,191.531,669.486,194.797C677.398,198.009,685.022,201.761,692.3,206.13C706.845,214.83,719.832,226.087,730.066,239.52C739.765,252.201,746.898,266.757,751.39,282.108L716.543,308.701L753.351,289.483C756.872,304.379,758.18,319.821,757.499,335.192C756.794,351.392,753.983,367.507,749.512,383.146L725.507,374.82L723.823,386.58L747.446,389.963C738.447,417.988,724.209,444.406,705.58,467.198L683.813,439.48L676.046,448.469L702.268,471.162C701.32,472.27,700.375,473.383,699.406,474.473C688.025,487.203,675.139,498.615,660.869,507.908C646.617,517.204,630.955,524.359,614.481,528.393C613.159,528.72,611.832,528.987,610.506,529.273L605.833,495.205L594.59,499.036L605.218,530.289C591.635,532.614,577.693,532.82,564.049,530.759C555.664,529.51,547.413,527.421,539.366,524.686C531.335,521.962,523.523,518.444,515.892,514.567C513.704,513.442,511.533,512.268,509.387,511.064L529.235,489.313L519.099,483.12L503.969,507.904C493.261,501.406,483.256,493.796,474.55,484.86C462.7,472.724,453.375,457.985,448.759,441.686C444.073,425.444,444.293,407.834,449.43,391.672C454.497,375.491,464.308,360.844,477.16,349.69C489.973,338.474,505.765,330.701,522.494,327.084C539.238,323.406,556.794,323.811,573.619,327.379C590.486,330.938,606.659,337.564,621.706,346.068C636.792,354.551,650.815,364.898,663.832,376.361C651.073,364.612,637.266,353.923,622.283,345.064C607.296,336.26,591.103,329.29,574.056,325.398C557.049,321.492,539.148,320.757,521.901,324.246C504.676,327.688,488.179,335.369,474.725,346.867C461.268,358.317,450.862,373.466,445.376,390.372C439.818,407.251,439.385,425.811,444.148,442.976C448.84,460.202,458.502,475.78,470.719,488.546C479.705,497.962,490.009,505.955,500.997,512.773L487.2,535.38L505.41,515.418C507.985,516.92,510.573,518.381,513.199,519.759C520.986,523.821,528.998,527.524,537.371,530.454C545.717,533.406,554.351,535.57,563.12,536.916C577.736,539.173,592.726,538.946,607.294,536.383L614.306,557L611.375,535.607C612.917,535.286,614.46,534.973,615.993,534.598C633.254,530.431,649.613,523.005,664.431,513.402C679.279,503.799,692.626,492.04,704.4,478.951C705.402,477.833,706.373,476.697,707.346,475.563L722.331,488.531L709.841,472.624Z" style="fill-rule: nonzero; stroke: none; fill: rgb(33, 33, 33); fill-opacity: 1;"/></g></g></g></svg>